#!OML:ASF I:\salsa\salsa 7_09\Patient 1\Session 1\dancerfemale.ASF
:FULLY-SPECIFIED
:DEGREES
1316
root 15.1251 15.5095 5.03064 90.846 -102.377 263.078
lowerback 6.91249 -2.55489 1.34196
upperback -3.57338 -4.32632 -9.13637
thorax -8.58952 -2.68791 -10.0584
lowerneck -0.577159 -0.0641726 -8.04305
upperneck 14.322 -2.02501 14.586
head 4.50332 -0.863323 5.83158
rclavicle -1.35174e-014 -9.54166e-015
rhumerus -7.62525 9.70192 -92.9838
rradius 56.4097
rwrist 9.89457
rhand 1.01839 403.28
rfingers 7.12502
rthumb 26.5654 15.1229
lclavicle -1.35174e-014 -9.54166e-015
lhumerus -20.8618 -4.36213 87.7717
lradius 81.3125
lwrist -30.8799
lhand -38.3938 19.5339
lfingers 7.12502
lthumb -11.419 49.2029
rfemur -8.57911 -5.06095 4.42645
rtibia 64.035
rfoot -12.0327 -19.4801
rtoes -0.129968
lfemur -15.6027 8.12474 -36.6153
ltibia 34.1824
lfoot -18.2991 5.08424
ltoes -15.5487
1317
root 15.2969 15.5298 4.99385 69.0066 -102.6 285.36
lowerback 6.89866 -2.06953 1.67459
upperback -3.84283 -3.65255 -9.00768
thorax -8.7574 -2.38616 -10.2238
lowerneck -1.13378 0.863231 -7.25434
upperneck 14.4241 -0.747881 14.4226
head 4.47822 -0.181133 5.69164
rclavicle 7.7526e-015 3.89618e-014
rhumerus -4.48351 12.561 -93.898
rradius 55.4885
rwrist 9.99567
rhand 1.68871 401.693
rfingers 7.12502
rthumb 27.2068 13.635
lclavicle 7.7526e-015 3.89618e-014
lhumerus -23.3803 -2.34345 86.2921
lradius 83.0124
lwrist -29.9427
lhand -39.6794 20.099
lfingers 7.12502
lthumb -12.6587 49.6954
rfemur -7.60265 -3.7936 4.06868
rtibia 60.4234
rfoot -12.3632 -20.0633
rtoes -2.13548
lfemur -16.9583 9.15373 -35.8077
ltibia 34.4032
lfoot -18.1044 7.73929
ltoes -13.166
1318
root 15.4639 15.5515 4.95219 48.2355 -104.474 306.306
lowerback 7.20687 -1.46192 2.31431
upperback -3.99837 -2.75496 -8.78711
thorax -8.94913 -1.98066 -10.5007
lowerneck -1.00076 1.67888 -5.93377
upperneck 13.826 0.48509 13.5801
head 4.15636 0.440635 5.21634
rclavicle 2.66371e-014 -3.73715e-014
rhumerus -1.65136 15.5473 -94.7325
rradius 54.7696
rwrist 10.0416
rhand 2.60764 400.535
rfingers 7.12502
rthumb 28.0856 12.6181
lclavicle 2.66371e-014 -3.73715e-014
lhumerus -25.7481 -0.291281 84.7401
lradius 84.6255
lwrist -29.0125
lhand -40.4389 21.4681
lfingers 7.12502
lthumb -13.3909 51.0178
rfemur -6.56984 -2.27989 4.00876
rtibia 56.4736
rfoot -13.9898 -18.3466
rtoes -8.98509
lfemur -17.9299 10.3358 -34.4179
ltibia 34.6594
lfoot -18.0837 10.5766
ltoes -9.97584
1319
root 15.6339 15.5745 4.90021 33.6492 -107.761 321.171
lowerback 7.48052 -0.781207 2.84971
upperback -4.11014 -1.76123 -8.59555
thorax -9.036 -1.51903 -10.7668
lowerneck -2.011 2.5846 -5.72959
upperneck 14.2371 1.60847 14.2547
head 4.32865 1.07569 5.45562
rclavicle -2.60408e-014 1.19271e-014
rhumerus 0.79347 18.5356 -95.5381
rradius 54.2699
rwrist 9.71974
rhand 3.52724 399.665
rfingers 7.12502
rthumb 28.9643 11.8951
lclavicle -2.60408e-014 1.19271e-014
lhumerus -27.908 1.71651 83.0265
lradius 86.1448
lwrist -28.2101
lhand -40.4528 22.7827
lfingers 7.12502
lthumb -13.4043 52.3314
rfemur -5.99626 -1.23433 3.87918
rtibia 52.5743
rfoot -17.1847 -14.0684
rtoes -21.3491
lfemur -18.7774 11.4709 -32.8557
ltibia 34.7266
lfoot -18.1657 13.3724
ltoes -6.75715
1320
root 15.8035 15.5877 4.83834 25.0771 -112.1 329.736
lowerback 7.97648 0.102915 2.72041
upperback -4.13327 -0.600516 -8.62197
thorax -9.10068 -0.947615 -10.9142
lowerneck -2.85777 3.35118 -5.34515
upperneck 14.4864 2.53117 14.8933
head 4.44642 1.6123 5.64662
rclavicle -6.55989e-015 8.74653e-015
rhumerus 2.75796 21.2049 -96.2448
rradius 53.9863
rwrist 9.20658
rhand 4.46656 398.824
rfingers 7.12502
rthumb 29.861 11.2112
lclavicle -6.55989e-015 8.74653e-015
lhumerus -29.811 3.5008 81.2306
lradius 87.4252
lwrist -27.5481
lhand -40.0944 22.9764
lfingers 7.12502
lthumb -13.0588 52.5476
rfemur -5.49144 -0.696708 3.06786
rtibia 48.8394
rfoot -19.8712 -9.19581
rtoes -25.6674
lfemur -19.1341 12.8231 -31.6941
ltibia 34.6656
lfoot -18.2959 15.8691
ltoes -3.51757
1321
root 15.9929 15.6347 4.77554 20.258 -115.929 334.526
lowerback 8.83058 0.753027 2.32863
upperback -4.19839 0.19956 -8.60682
thorax -9.5035 -0.553451 -10.8274
lowerneck -2.39181 3.91204 -4.0855
upperneck 13.4149 3.44955 14.0353
head 4.00269 2.04916 5.14161
rclavicle 4.94974e-014 -3.89618e-014
rhumerus 4.29484 23.7813 -96.7703
rradius 53.8452
rwrist 8.90982
rhand 5.30182 398.256
rfingers 7.12502
rthumb 30.6578 10.7901
lclavicle 4.94974e-014 -3.89618e-014
lhumerus -31.6646 5.30383 79.4878
lradius 88.5706
lwrist -26.9944
lhand -39.8736 23.0253
lfingers 7.12502
lthumb -12.846 52.61
rfemur -5.64249 -1.05238 2.26016
rtibia 45.7725
rfoot -22.019 -4.52533
rtoes -30.0508
lfemur -19.3779 12.9065 -30.6211
ltibia 34.5786
lfoot -18.4742 18.5604
ltoes -0.521362
1322
root 16.1747 15.685 4.70482 16.2453 -119.851 338.797
lowerback 9.50403 1.34372 2.00588
upperback -4.40201 0.967955 -8.27723
thorax -9.9715 -0.163425 -10.4293
lowerneck -2.9632 4.71075 -4.04024
upperneck 13.3677 4.54373 14.2082
head 3.97893 2.62172 5.23061
rclavicle 1.15295e-014 4.29375e-014
rhumerus 5.57656 26.9441 -97.1296
rradius 53.6007
rwrist 8.40371
rhand 5.68727 398.102
rfingers 7.12502
rthumb 31.0253 10.7054
lclavicle 1.15295e-014 4.29375e-014
lhumerus -33.8852 7.51432 77.7501
lradius 89.8702
lwrist -26.3067
lhand -39.7591 23.8948
lfingers 7.12502
lthumb -12.7355 53.4864
rfemur -6.15732 0.399312 2.74038
rtibia 43.0901
rfoot -23.4077 -2.10121
rtoes -32.1291
lfemur -19.815 12.7463 -29.079
ltibia 34.7379
lfoot -18.9244 21.1724
ltoes 1.81897
1323
root 16.4031 15.7146 4.63943 13.1649 -122.534 342.893
lowerback 9.98044 1.53678 2.20546
upperback -4.71606 1.31316 -7.74015
thorax -10.5389 -0.00580798 -10.0417
lowerneck -3.65073 5.48915 -3.92678
upperneck 13.3538 5.61469 14.2842
head 3.99233 3.18772 5.28377
rclavicle 1.59028e-015 4.77083e-015
rhumerus 6.96927 30.1531 -97.3366
rradius 53.2477
rwrist 7.35105
rhand 5.42405 397.772
rfingers 7.12502
rthumb 30.7744 10.3281
lclavicle 1.59028e-015 4.77083e-015
lhumerus -36.1392 9.48481 75.8707
lradius 91.2755
lwrist -25.3684
lhand -39.542 24.7696
lfingers 7.12502
lthumb -12.5263 54.3741
rfemur -7.37866 0.652341 4.36539
rtibia 41.0418
rfoot -23.5394 0.114359
rtoes -29.8522
lfemur -21.3641 12.0161 -26.8422
ltibia 35.4485
lfoot -18.8376 22.9169
ltoes 2.99382
1324
root 16.5582 15.7412 4.5553 9.16555 -126.611 347.596
lowerback 10.0858 2.29774 2.96414
upperback -4.79375 2.56062 -7.14794
thorax -10.436 0.599854 -10.0407
lowerneck -4.10241 6.19935 -3.34
upperneck 13.1401 6.61435 13.9545
head 3.94981 3.70762 5.11807
rclavicle 5.06901e-015 -2.38542e-015
rhumerus 8.47522 32.9461 -97.5012
rradius 52.7682
rwrist 6.34286
rhand 5.56681 397.614
rfingers 7.12502
rthumb 30.9105 10.1955
lclavicle 5.06901e-015 -2.38542e-015
lhumerus -38.3485 11.087 73.8863
lradius 92.5509
lwrist -24.3369
lhand -39.5485 25.3401
lfingers 7.12502
lthumb -12.5325 54.9443
rfemur -8.35425 1.18291 6.48241
rtibia 39.2273
rfoot -23.4136 3.37135
rtoes -26.6712
lfemur -22.1746 13.5392 -23.8578
ltibia 36.9735
lfoot -19.6941 23.7252
ltoes 4.23869
1325
root 16.6897 15.751 4.46471 6.01391 -130.405 351.727
lowerback 9.72117 2.88896 3.91844
upperback -4.80103 3.62246 -6.45485
thorax -10.0022 1.13078 -9.95142
lowerneck -4.8672 6.99962 -2.8137
upperneck 13.1557 7.70472 13.6716
head 4.02588 4.28705 5.00572
rclavicle 2.98177e-015 1.59028e-014
rhumerus 10.1158 35.7386 -97.6527
rradius 52.2483
rwrist 5.35591
rhand 6.39171 398.112
rfingers 7.12502
rthumb 31.6965 10.846
lclavicle 2.98177e-015 1.59028e-014
lhumerus -40.5081 12.8279 71.7423
lradius 93.5811
lwrist -23.4423
lhand -39.9035 26.2229
lfingers 7.12502
lthumb -12.8747 55.8058
rfemur -9.41344 0.269724 8.79618
rtibia 37.8575
rfoot -23.8118 7.46452
rtoes -25.0326
lfemur -23.3483 15.3942 -20.6851
ltibia 39.3543
lfoot -20.9694 24.0557
ltoes 5.49917
